# xmcd
#
# Track frame offsets: 
#        150
#        12816
#        25452
#        43948
#        64568
#        78580
#        98154
#        117038
#        129843
#        153611
#        177099
#        201923
#        223705
#        237448
#        256642
#        273220
#        287853
#        304990
#        320816
#
# Disc length: 4574 seconds
#
# Revision: 0
# Processed by: cddbd v1.5.2PL0 Copyright (c) Steve Scherf et al.
# Submitted via: ExactAudioCopy v1.3
#
DISCID=0e11dc13
DTITLE=Steve Earle - Guitar Town 30th Anniversary  CD2
DYEAR=2016
DGENRE=Country
TTITLE0=Guitar Town
TTITLE1=Sweet Little 66
TTITLE2=Goodbye's All We've Got Left To Say
TTITLE3=Hillbilly Highway
TTITLE4=My Old Friend The Blues
TTITLE5=Good Ol Boy (Gettin' Tough)
TTITLE6=Someday
TTITLE7=Think It Over
TTITLE8=Little Rock N Roller
TTITLE9=State Trooper
TTITLE10=The Week Of Living Dangerously
TTITLE11=Angry Young Man
TTITLE12=Nowhere Road
TTITLE13=Fearless Heart
TTITLE14=I Love You Too Much
TTITLE15=San Antonio Girl
TTITLE16=The Devil's Right Hand
TTITLE17=Down The Road
TTITLE18=No 29
EXTD=
EXTT0=
EXTT1=
EXTT2=
EXTT3=
EXTT4=
EXTT5=
EXTT6=
EXTT7=
EXTT8=
EXTT9=
EXTT10=
EXTT11=
EXTT12=
EXTT13=
EXTT14=
EXTT15=
EXTT16=
EXTT17=
EXTT18=
PLAYORDER=
